<?xml version="1.0" encoding="UTF-8"?>
<svg width="200" height="200" viewBox="0 0 200 200" xmlns="http://www.w3.org/2000/svg">
  <!-- Background -->
  <defs>
    <linearGradient id="bgGradient" x1="0%" y1="0%" x2="100%" y2="100%">
      <stop offset="0%" stop-color="#1a237e" />
      <stop offset="100%" stop-color="#0d47a1" />
    </linearGradient>
    <filter id="shadow" x="-20%" y="-20%" width="140%" height="140%">
      <feGaussianBlur in="SourceAlpha" stdDeviation="3" />
      <feOffset dx="2" dy="2" result="offsetblur" />
      <feComponentTransfer>
        <feFuncA type="linear" slope="0.5" />
      </feComponentTransfer>
      <feMerge>
        <feMergeNode />
        <feMergeNode in="SourceGraphic" />
      </feMerge>
    </filter>
  </defs>
  
  <!-- Main circle -->
  <circle cx="100" cy="100" r="90" fill="url(#bgGradient)" />
  
  <!-- Decorative elements -->
  <path d="M100,30 L120,70 L80,70 Z" fill="#64b5f6" filter="url(#shadow)" />
  <path d="M30,100 L70,120 L70,80 Z" fill="#2196f3" filter="url(#shadow)" transform="rotate(15, 100, 100)" />
  <path d="M100,170 L120,130 L80,130 Z" fill="#1976d2" filter="url(#shadow)" />
  <path d="M170,100 L130,120 L130,80 Z" fill="#0d47a1" filter="url(#shadow)" transform="rotate(-15, 100, 100)" />
  
  <!-- Inner circle -->
  <circle cx="100" cy="100" r="40" fill="#bbdefb" opacity="0.9" />
  
  <!-- T letter stylized -->
  <g transform="translate(75, 70) scale(1.5)">
    <path d="M10,10 L30,10 L30,15 L25,15 L25,40 L15,40 L15,15 L10,15 Z" fill="#0d47a1" filter="url(#shadow)" />
  </g>
  
  <!-- Pulse effect -->
  <circle cx="100" cy="100" r="50" fill="none" stroke="#64b5f6" stroke-width="2">
    <animate attributeName="r" from="45" to="55" dur="2s" repeatCount="indefinite" />
    <animate attributeName="opacity" from="1" to="0" dur="2s" repeatCount="indefinite" />
  </circle>
  
  <!-- Dots representing data points -->
  <circle cx="85" cy="85" r="3" fill="#ffffff" />
  <circle cx="115" cy="85" r="3" fill="#ffffff" />
  <circle cx="85" cy="115" r="3" fill="#ffffff" />
  <circle cx="115" cy="115" r="3" fill="#ffffff" />
  <circle cx="100" cy="70" r="3" fill="#ffffff" />
  <circle cx="100" cy="130" r="3" fill="#ffffff" />
  <circle cx="70" cy="100" r="3" fill="#ffffff" />
  <circle cx="130" cy="100" r="3" fill="#ffffff" />
  
  <!-- Connecting lines -->
  <line x1="85" y1="85" x2="115" y2="85" stroke="#ffffff" stroke-width="1" />
  <line x1="85" y1="115" x2="115" y2="115" stroke="#ffffff" stroke-width="1" />
  <line x1="85" y1="85" x2="85" y2="115" stroke="#ffffff" stroke-width="1" />
  <line x1="115" y1="85" x2="115" y2="115" stroke="#ffffff" stroke-width="1" />
  
  <!-- Text -->
  <text x="100" y="160" font-family="Arial, sans-serif" font-size="14" font-weight="bold" text-anchor="middle" fill="#ffffff">TRACEYA</text>
</svg>